<?xml version="1.0" standalone="no"?>
<!DOCTYPE svg PUBLIC "-//W3C//DTD SVG 20010904//EN"
 "http://www.w3.org/TR/2001/REC-SVG-20010904/DTD/svg10.dtd">
<svg version="1.0" xmlns="http://www.w3.org/2000/svg"
 width="162.000000pt" height="162.000000pt" viewBox="0 0 162.000000 162.000000"
 preserveAspectRatio="xMidYMid meet">
<metadata>
Created by potrace 1.14, written by Peter Selinger 2001-2017
</metadata>
<g transform="translate(0.000000,162.000000) scale(0.100000,-0.100000)"
fill="#000000" stroke="none">
<path d="M779 1603 c-11 -12 -13 -45 -10 -135 3 -105 1 -118 -14 -118 -9 0
-25 5 -36 10 -13 8 -25 7 -40 0 -25 -14 -21 -45 6 -46 78 -4 75 -3 75 -34 0
-28 -2 -30 -38 -30 -32 0 -52 12 -137 80 -55 43 -102 79 -105 80 -3 0 -3 -58
-2 -129 l4 -129 -54 -55 c-29 -30 -62 -70 -72 -90 -19 -34 -22 -35 -154 -65
-124 -28 -152 -37 -141 -45 2 -2 52 -38 110 -80 l106 -76 7 -58 c4 -32 15 -80
25 -108 l18 -50 -63 -133 c-56 -118 -61 -132 -41 -126 12 4 76 21 142 39 l119
31 48 -29 c26 -16 75 -39 109 -51 l62 -21 51 -117 c28 -65 55 -117 59 -115 4
1 33 57 64 125 43 93 60 122 75 122 17 0 133 56 169 82 13 9 44 4 142 -20 70
-18 131 -32 137 -32 6 0 -17 55 -51 122 l-61 121 21 71 c12 39 21 89 21 111 1
40 2 41 110 115 60 41 110 78 110 81 0 3 -61 20 -135 38 l-135 33 -34 51 c-19
29 -48 65 -65 81 l-31 30 0 138 c0 76 -3 138 -6 138 -3 0 -45 -33 -93 -72 -47
-40 -93 -78 -102 -85 -9 -8 -30 -10 -52 -6 -33 5 -37 9 -37 34 0 30 12 35 78
31 24 -1 31 25 10 46 -16 16 -34 15 -53 -4 -34 -34 -41 -12 -39 112 2 97 0
122 -13 137 -20 22 -46 22 -64 0z"/>
</g>
</svg>
